<mxfile host="Electron" agent="Mozilla/5.0 (Windows NT 10.0; Win64; x64) AppleWebKit/537.36 (KHTML, like Gecko) draw.io/27.0.5 Chrome/134.0.6998.205 Electron/35.3.0 Safari/537.36" version="27.0.5" pages="2">
  <diagram id="TAZlNpyzT57UB132Z_Th" name="architecture">
    <mxGraphModel dx="2066" dy="1201" grid="1" gridSize="10" guides="1" tooltips="1" connect="1" arrows="1" fold="1" page="1" pageScale="1" pageWidth="850" pageHeight="1100" math="0" shadow="0">
      <root>
        <mxCell id="esbHECSBwcRWjfnft_Ba-0" />
        <mxCell id="esbHECSBwcRWjfnft_Ba-1" parent="esbHECSBwcRWjfnft_Ba-0" />
        <mxCell id="w12pl_d0Eym6oQ7OZC4N-0" value="" style="rounded=0;whiteSpace=wrap;html=1;dashed=1;container=0;" vertex="1" parent="esbHECSBwcRWjfnft_Ba-1">
          <mxGeometry x="200" y="50" width="270" height="200" as="geometry" />
        </mxCell>
        <mxCell id="w12pl_d0Eym6oQ7OZC4N-1" value="" style="group" vertex="1" connectable="0" parent="esbHECSBwcRWjfnft_Ba-1">
          <mxGeometry x="590" y="50" width="200" height="200" as="geometry" />
        </mxCell>
        <mxCell id="w12pl_d0Eym6oQ7OZC4N-2" value="" style="rounded=0;whiteSpace=wrap;html=1;dashed=1;" vertex="1" parent="w12pl_d0Eym6oQ7OZC4N-1">
          <mxGeometry width="200" height="200" as="geometry" />
        </mxCell>
        <mxCell id="w12pl_d0Eym6oQ7OZC4N-3" value="" style="shape=image;verticalLabelPosition=bottom;labelBackgroundColor=default;verticalAlign=top;aspect=fixed;imageAspect=0;image=data:image/jpeg,/9j/4AAQSkZJRgABAQEAAAAAAAD/4QBCRXhpZgAATU0AKgAAAAgAAYdpAAQAAAABAAAAGgAAAAAAAkAAAAMAAAABAIsAAEABAAEAAAABAAAAAAAAAAAAAP/bAEMACwkJBwkJBwkJCQkLCQkJCQkJCwkLCwwLCwsMDRAMEQ4NDgwSGRIlGh0lHRkfHCkpFiU3NTYaKjI+LSkwGTshE//bAEMBBwgICwkLFQsLFSwdGR0sLCwsLCwsLCwsLCwsLCwsLCwsLCwsLCwsLCwsLCwsLCwsLCwsLCwsLCwsLCwsLCwsLP/AABEIAPgB2gMBIgACEQEDEQH/xAAfAAABBQEBAQEBAQAAAAAAAAAAAQIDBAUGBwgJCgv/xAC1EAACAQMDAgQDBQUEBAAAAX0BAgMABBEFEiExQQYTUWEHInEUMoGRoQgjQrHBFVLR8CQzYnKCCQoWFxgZGiUmJygpKjQ1Njc4OTpDREVGR0hJSlNUVVZXWFlaY2RlZmdoaWpzdHV2d3h5eoOEhYaHiImKkpOUlZaXmJmaoqOkpaanqKmqsrO0tba3uLm6wsPExcbHyMnK0tPU1dbX2Nna4eLj5OXm5+jp6vHy8/T19vf4+fr/xAAfAQADAQEBAQEBAQEBAAAAAAAAAQIDBAUGBwgJCgv/xAC1EQACAQIEBAMEBwUEBAABAncAAQIDEQQFITEGEkFRB2FxEyIygQgUQpGhscEJIzNS8BVictEKFiQ04SXxFxgZGiYnKCkqNTY3ODk6Q0RFRkdISUpTVFVWV1hZWmNkZWZnaGlqc3R1dnd4eXqCg4SFhoeIiYqSk5SVlpeYmZqio6Slpqeoqaqys7S1tre4ubrCw8TFxsfIycrS09TV1tfY2dri4+Tl5ufo6ery8/T19vf4+fr/2gAMAwEAAhEDEQA/APXKKKKACiiigAooooAKKKKACiiigAooooAKKKKACiiigAooooAKKKKACiiigAooooAKKKKACiiigAooooAKKKKACiiigAooooAKKKKACiiigAooooAKKKKACiiigAooooAKKKKACiiigAooooAKKKKACiiigAooooAKKKKACiiigAooooAKKKKACiiigAooooAKKKKACiiigAooooAKKKKACiiigAooooAKKKKACiiigAooooAKKKKACiiigAooooAKKKKACiiigAooooAKKKKACiiigAooooAKKKKACiiigAooooAKKKKACiiigAooooAKKKKACiiigAooooAKKKKACiiigAooooAKKKKACiiigAooooAKKKKACiiigAooooAKKKKACiiigAooooAKKKKACiiigAooooAKKKKACiiigAooooAKKKKACiiigAooooAKKKKACiiigAooooAKKKKACiiigAooooAKKKKACiiigAooooAKKKKACik3Ju2bhuxu255x64paACiiigAooJCgknAAySegFHXkdKACiiigAooooAKKKKACiiigAooooAKKKKACiiigAooooAKKKKACiiigAooooAKKKKACiiigAooooAKKKKACiiigAooooAKKKKACiiigAooooAKKKKACiiigAooooAKKKKACiiigAooooAKKKKAM3VUIFvMuQVYpkcEZ5HIqCDUp48LKPMX16OPx6VoX0fmWswxyo3j6rzWBXp4dRqU+WS2OOq3Cd0dHDc284/duCe6nhh+BqWuYBKkMpIZTkEdQRXSROJY45B0dVb8xXNiKHsrNbG1Kpz6MeQCCDyCMH6VjR3UtlLJA+XiRyAO6jqCua2ayNUi2yxygcSLtP+8tGGs5OEtmFa6XMuhqRSxTIHjYMp9OoPoRT65yGaWB98bYPcfwsPQitq2vIrkY+7KByh/mporYd09Vqgp1VLR7lmiiiuU2CiiigAooooAKKKKACiiigAooooAKKCQASSAACSTwAB3JrjNX8bQwO8GlxpOykq1xLnyQRx+7Ucn65A+tAHZ0V5cNf8aXWZIZbplP/PtajYPoQh/nUtv4v8SWcgS7CzqPvR3MXlSY9mUA/oadhXPTKKy9H1uw1qFnt9ySxbfPgk+/GT0ORwQexrUpDCiiigAooooAKKKKACiiigAooooAKK5/xNrd5osVjJbRQSG4lkRxMHIAVQwxtIq7oWoT6ppltezpGkkplDLFuCDY5UY3EntQBp0UUUAFFFFABRRRQAUUUUAFFFFABRRRQAUUUUAFFFFABRRRQAUUUUAFFFFAAQCCD0IIP0Ncy6lHdD1RmU/gcV01YWoR7Lpz2kCuPx4Nd2DlaTic2IWiZUra0yTdA0Z6xOR/wFuR/WsWr2mybLjYekqlf+BDkf1rqxEeamzClK0kbVVb+LzbaTA+aP8AeL/wHr+matUEAgg9CMH6V5MJcslJHfJXVjl6UEgggkEHII4IPsafNGYpZYz/AAMQPp1FR17qd1c8zY1bTUQcR3Bweiydj/vVp9eRXL1ctb6W3wrZeL+73X/dNcVbC396B0061tJG5RTIpYpkDxsGU/mD6EU+vOaa0Z17hRRRSAKKKKACiiigAooooA4nxrrMkQTSbdypkQS3jKcHyz92LPv1P/16Twv4Yt2hh1LUohI0oElrbyDKInUSSKepPUD/AB457WM3fiW9jkJxJqMVsc9kDLHivV1VVVVUAKoCqB0AAwBVbCFAVQFUAKBgADAA9gKq32nafqMLQ3kCSqQQCRh0PqjDkGjUb1NOsrq9kRnS3TeyIQGYZAwM8VzH/Ce6d/z4Xf8A31F/jSGdJpmmWOlWy21ohC53SO2DJK/952q7XHf8J7p3/Phd/wDfUX+Nbba7ZJo0esyK6QyRh44iR5jOSVWMY4yTQBrUV5e+p+LPEVzJFaNOqdfItGMUUSE8GSTI/U0k9p400IC6eW7SIEFpI5/PiHtIpJGPqKLCueo0VzvhrxENYR7e4CpfwKGYJwk0fTegP6j/AB4b4l8RjSFS2tQj38ybxv5SCM8B2HcnsP8AJBnSUV5dBZ+NNcX7Ust28bElJJbgwRtz/wAs1BAx9BTo9V8V+HblIrwzsnUwXbGSORAcExSZP6H8KLCuen0VU07ULXU7OC8tyfLlByG+8jjhkb3FcTr3iu+uLl7HR3dIlk8nzoRma4kzjEWOQPTHJoGeg0V5kujeOol+2IbwOBv2rd5n9fubv0qnceJPEczxbr2eF40WGRYSYw7KSCzp2bsfpRYVzpfH3/HtpH/XxP8A+ixWt4Q/5ANh/vXH/o1qxvHJJstCJOSZJCSe5MS1p+GbiC08M29zO22GAXUkjeirKx4/pR0DqdJRXmV3rviPX7s22n+fHExPlW9q21tg/imkGPx5ApJrLxroafbDLcrGpBkaO4M6Lz/y1QkjH4UWC56dRWH4c11datnEgVL232i4RfusD0kQHsf0rcpDCiiigAooooAKKKKACiiigAooooAKKKKACiiigAooooAKKKKACszVY/lglA6Eofx5FadVr6PzLWYd1G8fVea2oy5aiZnUV4tGBT43MbxyDqjK35GmUV7W5551AIYKw6EAj6HmiqunyeZbR56x5jP4dKtV4M48snE9KLurmRqkW2WOUDiRdrf7y/5/Ss6t6/i822kwPmjxIv8AwHr+mawa9XDT5qduxxVo2kFFFFdJiSQzSwPvjbB7j+Fh6EVt2t5FcjH3ZQOUPf3U1gUoJBBBIIOQRwQfY1hVoxqLzNYVHA6eisy01EHEdwcHosnY/wC9Wn15FeVUpypu0jtjNSV0FFFFZlhRRRQAUUUUAeWeKbeWx164mAIE7xXsDdieM/kRXpOn3sGoWdreQsCk0asQP4W6Mp9weKoeIdEj1q0CKVS7g3PayHpkjlG9j/n34PTtV1jwzdzW8sLbN3+kWk2VBPTfG3r7jIP8q3Fsen3drb3tvPa3CloJl2SKGKkjIPVeaxf+EP8ADH/PrJ/3/m/+KqCHxv4fkQGUXUL45Vot4B9mQkVS1Dx1aiNk0y3keUggS3ICRp7hAdx/SlqBheKrHR9Nu7a10+MoywmW5zI78sfkU7iewJ/Gp/ECzW2ieEbJsgeRJO4/2yFIBHtuNR6Fo19r18b++LtaCXzbiaTrcuDny09vX0HFdV4u0qXUNOjltkLT2LNKsajl4iMOqj16EfSmBN4StoINEspI1G+6DzzN3ZixUAn2AArckSOVHjkUNHIrI6sMhlYYIIrzzwz4oh02H7Bfh/swdmglQFjFuOWR1HOM8j/ONrU/GmlRW8g05muLp1IjPlukUZP8TlwDx6YpWA5bRgbLxRbQwsdiX9xaDvmIl0waNTH2/wAU3MM5OyTUorU5PSJWWPA/D+dXvB2mXF3qH9qTBvItjIyyN/y1uXBHH0ySab4v0y4stS/tOEMILp45PMX/AJZXKY4J98Aj8afUR6OiJGiRooVEUIiqMBVAwAAKwPGFtBPol3K4HmWrRzQt3DF1QgH3BqrpvjTSZrdBqDNbXKqBJ+7d4nI/iQoD19CKw/E3ieLU4lsLBX+y71eaVwVaYqflVV64zz7/AM1YYeHLueDQvFuwn9zCJY/9lpI2QkfkKPAtrBLqN3PIAz2tuvk552tI20sPwGPxrf8ADehtb6Ldw3ilJdUVzMh+9HGybEUj17/j7VyFlc3/AIV1iRZoi2wGGePoJ4Cch4yfwI/KmB6tXmXjO2hg1pXjAU3UEU8oHH7zcyFse+BXVnxl4bEPmieYvtz5Ihfzc+nI2/8Aj1efarqU2rX817IuwOVSKMHPlxLwq59e5+tCBnWeOP8Ajx0L/rpJ/wCilqjPI6eB7BVJAmvTG+O6iWR8H8hV7xx/x46F/wBdJP8A0UtSafpzap4NitY8edumlgzwDLHMzAH68j8aOgGHoev2Oh2VzttWm1C4mJLEhI1iUAIC/J65OAKtFvG/iXKhWgspMgjBt7cqexJ+dv1rM0K/sdJv5P7TsRIAfLLPGGmtZFOCQjfr3/r2l14z8Pwws9vJJcy7fkiSN057bmcAAfnQAugeF00aU3T3ckty0TRMsYCQbWIJGDknpxzXR1zPhnxBf6wbiK5tMGHLG5h4h+Y8RsG/i+np279NSYwooopAFFFFABRRRQAUUUUAFFFFABRRRQAUUUUAFFFFABRRRQAUEBgQehBB+hoooA5l1KO6HqjMv5HFNqnq+sJb6lewpBvEbKGbzNuX2AsMYNUP7eP/AD6/+Rf/ALGvqKeFrTgpKO68jxZ1qcZON9jrdKkxJLEf41Dj6rwa1q4rSdXludRsoI7bBdzubzM7UCkscbfSu1rxsfQlRqWl1R6GFqKpDToBAIIPQjBrm5ozFLLGf4GIH06g10lcl4g1WO0v/JSHzHEEbSnftwxJwOh7YqsvjOpUcIK4sU4xjzSJaKxP7eP/AD6/+Rf/ALGj+3j/AM+v/kX/AOxr2vqVb+X8Ued9Yp9zborE/t4/8+v/AJF/+xo/t4/8+v8A5F/+xo+pVv5fxQfWKfc26t2t7Lb4VsvF/d7r/umuZ/t4/wDPr/5F/wDsaP7eP/Pr/wCRf/samWAqzVpR/FFRxUIu6Z6BFLFMgeNgyn8wfQin1xWmarqd1ciOxsiX48wmUiJV9ZDtx/Wu0Xdhd2N2Bu25xnvjNeFisLLDS5ZHp0KyrRuhaKKK4zcKKKKACql9pmm6kgjvbaOYD7rMMOn+66/MPzq3RQBykngXRGYmOe9jH90OjAfQsuf1qza+DfD1syu8ctywOR9pkymf9xAB+ddFRTuAiIkaqiKqIoCqqAKqgdgBxS0UUgMPUfC2hajI8zxPBO5y8lqwTefVlIK5/Cqdv4I0GJw8rXVwAc7JZAqH6iMA/rXUUU7gMiihgjjhhjSOKNQqIgCqoHYAUTQwXEckM8aSRSAq6SKGVh6EGn0UgOXn8EaDK5eJ7qAE52RyBkH08wE/rVzTvC+h6bIk0cTzTpyklywcofVVACg/hW5RTuAEgAknAHJJ7Vz11P4R165XTJZIri4VXaKSIkFSvVY5hxnvjJ6V0NcBrvhO9guWvtGVmjZ/OMETbZoJM5zF0yPTuKEBqL4F0NXDNPeugOdhkQA+xZVzXLeIo7M60ljp8aLFbpa2SJF08zdkjPrk4NTnUfH8ifZcalkjYStrtlPbmQJn9a1/DfhW6guY9S1QBXiJkt7csHfzD/y0lI4yOwzTEdLqGjadqkVrFerIy22TH5cjJyVCnO2rFjY2unW0Vpaqywxlyodi5+Zix5PNWaKkZk6n4e0bVW8y5hKz4x58DeXIQOm49D+IrLi8DaGjhpJryVQc7GkRQfYlFB/Wuqop3AhtrW0s4Ut7WFIYU+6kYwPqe+amoopAFFFFABRRRQAUUUUAFFFFABRRRQAUUUUAFFFFABRRRQAUUUUAFI7KiO7HCorMx9ABkmlrL8QXP2bSb9gcNIgt0+sp2fyzWtKm6tSMF1diJy5IuT6HnU8zXE9xcMctPNJKf+BsWqOkor9HSSVkfIt3d2dT4Otd9ze3hHEMawJ/vSHcx/ID867Wsfw1a/ZtJtSww9wWuX9f3n3f0xWxXweY1vbYmT6LT7j6fCU/Z0YoRmVVZmOFUFiT0AHJNeV31yby8vLo5/fTO657J0Ufliu+8R3f2TSrracSXGLaPHX9594/lmvOK9rI6NoyrProefmVS7VNeotFFFfRnkBRRSqruyoiszuQqKgJZiegAFIBtbej+H7vUys0u6CyznzCPnlHpED/AD/nWvo3hdU2XOpqGbho7Xqq+hlI6n26fWusAAAAAAAAAHAAHYV87js3Ub08Pq+/+R62GwDfvVfuILSztLGFILWJY419OrH+8xPJNT0UV8vKTk+aTuz2kklZBRRRUjCiiigAooooAKKKKACiiigAooooAKKKKACiiigAooooAKKKKACiiigAooooAKKKKACiiigAooooAKKKKACiiigAooooAKKKKACiiigAooooAKKKKACuT8ZXGItPtAfvyPO49kG1f5n8q6yvPPE9x5+r3Cg5W2jjtx9QN7fqa9fJ6XtMSn21/Q4cfPlotdzFqW2ga6uLa2X7080cQ+jHBNRVv+FLXz9TM5Hy2kLP7eZJ8i/1r67E1fY0pVOyPBow9pUUO53qIkaJGgwiKqKPRVGAKWikZlVWZiAqgsxPQAck1+d7n1hxPjC78y7tbNT8tvGZZB/00l4H5AfrXM1Yvrlry8vLo5/fTOy57JnCj8sVXr9CwlH2FGNPsvx6nylep7So5BRSVt6P4fu9SKzS7oLLr5hHzyj0iB/n/OtK1aFGPPUdkRTpyqS5Yq7M6xsL3UZhBaxlm4LueI419Xau+0nQ7LS1DjEt2ww87jkZ6rGOwq/aWdpYwpBbRLHGvYdWP95ieSanr4/HZnPE+5DSP5+v+R7+GwcaPvS1YUUUV5B3hRRRQAUUUUAFUtR1Ox0uDz7pyMkrHGvMkjDnCj+dXa5CONda8UXf2gb7XS1KxxtypZGCjI92yT9BQBYTW/E92BLY6GBA3KNcyEFl9RkrVvTtW1ie7WzvtIlt2ZHfzlYmIBfXIx6Dhq3KKAMCe9vV8UWFks7i0ktGkeHC7WYLIck4z2Het+uYuf8AkctN/wCvF/8A0CatbWNVi0m189l8yWRvLt4gcGSQjPPsO/8A9egDRormkh8dXKLO17ZWpYbltzEG2g8gOSrfzNWNK1i8ku5tK1WJItQiXejR/wCrnQDOV9+/+GMUAbtFYWvajfWFxocds6qt3dGKcMituTdGMAnp1NbtABRWE+o3w8SwaaHX7I9oZWTYu7ftc53de1Wdb1ZdJtkdU825nfyraI5wzdy2OcD+vvwAalc/Je3o8U2tkJ3Fo9m0jQ4XaX2yHOcZ7DvUcdv46kRZ2v7GN2G77M8IKjvtZlXOfxP1rPs7q4u/FVm1zB5F1DazW9zHnKiREc7kP90ggigDtKjuJTDb3MwAYxQyygE4BKKWxmpKr33/AB46h/163H/otqAOctvEXiG8iE9toiyxEld6THG4dRyKnj8TvDNFBq2m3Fj5hwsrEtH6ZOQOPXGaf4P/AOQLH/18XH8xSeMHtxpJSTb5rzxfZ143FgcsVHXpnP196AOiBBAIOQeQR0IorNRrm10NHJxc2+lhvmGdskcGeQfQ0zw/e3V/plvc3TK0zvMrFVCDCuVHA4oA1aKyfEN9d6fpktzauqzLLCoLKHGGbB4PFW1nlOmrckjzjYifOBjf5W/OPrQBborktN1fxJq9tHFZi3SeLd9svZ0AjBYkokUa98deP/rrd3nizQ/Kub2a2vrIyKkvlxhHTd6EKD9Ov60AdZRTYpEmjilQ5SVEkQ+qsNwNOoAKKKKACiiigAooooAKKKKACiiigAooooAKKKKACiiigBHZUR3Y4VFZmPoAMmvJ55muJ7i4b708skp/4GxavRfEFx9m0i/YHDSILdPrKdh/TNea19VkVK0J1O+n3HiZnO8owFru/CVr5OnPcEfNdzMw/wCucfyL/WuFRJJHSONS0kjBEVQSSx4GAK9WtLdbW1tbZQMQQxx8dyowT+NaZ3W5aKprq/wROW07zc+xNWR4ju/smlXW1sSXGLaPHX9594/lmteuI8YXfmXdrZqflt4zLIP+mkvTP4D9a8HLaPtsTFPZa/ceni6ns6TfyOYpyq7siIrM7kKioCWYnsAKs2Nhe6jMIbWMseN7niONfV2rvdJ0Oy0tQ4/e3bDDzuORnqsY7CvrMbmFPCqz1l2/zPDw+FnXd9l3MnRvC6p5dzqahn4ZLXqi+hlI6n26fWusAAAAAAAAAHAAHYUUV8ZicVUxMuao/wDJH0FKjCjHlggooormNgooooAKKKKACiiigArktDIg8R+JIH4eRpJEz/EBLv4/Bga62ub1zSr/AO1wazpP/H5CAJYhjMqqMAgHg8cEdx9OQDpKK5iPxdCg2X+nX0E68OqR7lLe2/af0rQ03Wxqdw8UVheRQrGz+fOu1CwIAUAZGTn17UAZ9z/yOWm/9eL/APoE1M8QfPrnhWJ+YjOGwehbzU/wFSXCSHxfpzhH2CyYFwrbAdkvBbGKueIdMuL+3t5rQ4vbGXz7fkDf0JXJ78Aj6e9AG1XLa1hPEnhh04kchHx1Kb8c/malj8V20aBL6xv4btRtkiWEsC467CSDTNOtr/VtWXWr23e3trdPLsYJeJDwQGIPPcn6n2oAb4q/4+/DH/X8f/Q4a6muf8UWN5c29lc2aGSewuPOEajLMpwSVHfBA4pkfi2xZFVrLUPtWADAkG47/QHP9KAIpP8Akc7b/rwP/oD03XPn8ReF435jDBwD03eZn+gqCyj1R/FFreXtu0TXVrNMqAFhDHsaNI3YDG7jn61p+I9OvLlLK+sRuvNPl81EH3pEyGwvuCAcfWgDerlpFVfGlsR1eyLN9RE6/wBBU0fiyzKKktjqC3eMNAkBY7+mFJIP6VRtE1N/E9neXtu0JuraaVIwC3kRCNo0SRgMbuMn60AdjVe+/wCPHUP+vW4/9FtViq98CbK/ABJNrcAADJJ8tugFAHHeH9Ivb3Tknh1e8tEMsqeTBu2AqcFuHHX6VJpVrBDr1xZ6v5lzeR4k0+a4kd0cD5gQrEjJHI+h9K1fCKOmjRq6OjfaJzh1KnqOzc0eJtOlngh1C0DC+05hKhQZdowdxAA7jqPx9aANXU/+Qbqn/Xldf+imrN8J/wDIEtf+ulx/6NardncDWNKLMjRPcQS286OrKY5CpRuG5x3Fc9pOqyaBFJpmqWl0vlSyNDLFHvR1Y5ODwMdwQe/tQBp+L/8AkCz/APXe3/8AQ60V/wCQMn/YMH/oiuY128v9ZsJHtLK5j0+1ZJXedCslxIT5arFGMnAzk/5z06hv7HRcHd/ZoGMHOfIxjHWgDM8HKBoykDl7mct7kbV/pU/ir/kCX3+9b/8Ao1ai8Io6aNGro6N9onOHUqeo7NzU3ihXfRb5UVmYmDARSxP71ew5oAvaV/yDNK/68rb/ANFrVyqelgjTdLBBBFnbAgggg+WvBBq5QAUUUUAFFFFABRRRQAUUUUAFFFFABRRRQAUUUUAFFFFAHKeMJnZNNsYwzPLI85RAWZtg2KABz3P5Vn6f4Uv7nbJet9liPOzhp2H06D8fyruPKh83zvLTztnl+ZtG8JknaG64p9erTzOdGgqNFW7s4Z4ONSo6lR38ilY6VpunLi1gVXIw0rfNK31c81doorzZzlUfNN3Z2Rioq0VYRmVVZmICqCzE9ABySa4a10i81+9udQn3QWU0zOrkfPJGDhViB7YA5/nXcsqOrI6hkYFWUjIIPBBFKAAAAAAAAAOAAOwrqw2Llhoy9n8T69kY1qCrNc2y6EFpaWllCkFtEsca9h1Y92Ynkmp6KK5JScnzSd2bpJKyCiiipGFFFFABRRRQAUUUUAFFFFABRRRQAUUUUAFFFFABRRRQAUUUUAFFFFABRRRQAUUUUAFFFFABRRRQAUUUUAFFFFABRRRQAUUUUAFFFFABRRRQAUUUUAFFFFABRRRQAUUUUAFFFFABRRRQAUUUUAFFFFABRRRQAUUUUAFFFFABRRRQAUUUUAFFFFABRRRQAUUUUAFFFFABRRRQAUUUUAFFFFABRRRQAUUUUAFFFFABRRRQAUUUUAFFFFABRRRQAUUUUAFFFFABRRRQAUUUUAFFFFABRRRQAUUUUAFFFFABRRRQAUUUUAFFFFABRRRQAUUUUAFFFFABRRRQAUUUUAFFFFABRRRQAUUUUAFFFFABRRRQAUUUUAFFFFABRRRQAUUUUAFFFFABRRRQAUUUUAFFFFABRRRQAUUUUAFFFFABRRRQAUUUUAFFFFABRRRQAUUUUAFFFFABRRRQAUUUUAFFFFABRRRQAUUUUAFFFFABRRRQAUUUUAFFFFABRRRQAUUUUAFFFFABRRRQAUUUUAFFFFABRRRQAUUUUAFFFFABRRRQAUUUUAFFFFABRRRQAUUUUAFFFFABRRRQAUUUUAFFFFABRRRQAUUUUAFFFFABRRRQAUUUUAFFFFABRRRQAUUUUAFFFFABRRRQAUUUUAFFFFABRRRQAUUUUAFFFFABRRRQAUUUUAFFFFABRRRQAUUUUAFFFFABRRRQAUUUUAFFFFABRRRQAUUUUAFFFFABRRRQAUUUUAf/2Q==;" vertex="1" parent="w12pl_d0Eym6oQ7OZC4N-1">
          <mxGeometry x="110" y="10" width="84.68" height="44.3" as="geometry" />
        </mxCell>
        <mxCell id="w12pl_d0Eym6oQ7OZC4N-4" value="Whois" style="shape=hexagon;perimeter=hexagonPerimeter2;whiteSpace=wrap;html=1;fixedSize=1;fillColor=#f8cecc;strokeColor=#b85450;" vertex="1" parent="w12pl_d0Eym6oQ7OZC4N-1">
          <mxGeometry x="50" y="70" width="100" height="80" as="geometry" />
        </mxCell>
        <mxCell id="w12pl_d0Eym6oQ7OZC4N-6" value="https://whois.ivanenkomak.com/" style="edgeStyle=orthogonalEdgeStyle;rounded=0;orthogonalLoop=1;jettySize=auto;html=1;fontSize=12;" edge="1" parent="esbHECSBwcRWjfnft_Ba-1" source="w12pl_d0Eym6oQ7OZC4N-7" target="w12pl_d0Eym6oQ7OZC4N-13">
          <mxGeometry x="-0.6842" y="40" relative="1" as="geometry">
            <mxPoint x="200" y="160" as="targetPoint" />
            <mxPoint as="offset" />
          </mxGeometry>
        </mxCell>
        <mxCell id="w12pl_d0Eym6oQ7OZC4N-7" value="" style="verticalLabelPosition=bottom;html=1;verticalAlign=top;align=center;strokeColor=none;fillColor=#00BEF2;shape=mxgraph.azure.user;" vertex="1" parent="esbHECSBwcRWjfnft_Ba-1">
          <mxGeometry x="40" y="135" width="47.5" height="50" as="geometry" />
        </mxCell>
        <mxCell id="w12pl_d0Eym6oQ7OZC4N-11" value="" style="shape=image;verticalLabelPosition=bottom;labelBackgroundColor=default;verticalAlign=top;aspect=fixed;imageAspect=0;image=data:image/jpeg,/9j/4AAQSkZJRgABAQEAAAAAAAD/4QBCRXhpZgAATU0AKgAAAAgAAYdpAAQAAAABAAAAGgAAAAAAAkAAAAMAAAABAMwAAEABAAEAAAABAAAAAAAAAAAAAP/bAEMACwkJBwkJBwkJCQkLCQkJCQkJCwkLCwwLCwsMDRAMEQ4NDgwSGRIlGh0lHRkfHCkpFiU3NTYaKjI+LSkwGTshE//bAEMBBwgICwkLFQsLFSwdGR0sLCwsLCwsLCwsLCwsLCwsLCwsLCwsLCwsLCwsLCwsLCwsLCwsLCwsLCwsLCwsLCwsLP/AABEIAJwB2gMBIgACEQEDEQH/xAAfAAABBQEBAQEBAQAAAAAAAAAAAQIDBAUGBwgJCgv/xAC1EAACAQMDAgQDBQUEBAAAAX0BAgMABBEFEiExQQYTUWEHInEUMoGRoQgjQrHBFVLR8CQzYnKCCQoWFxgZGiUmJygpKjQ1Njc4OTpDREVGR0hJSlNUVVZXWFlaY2RlZmdoaWpzdHV2d3h5eoOEhYaHiImKkpOUlZaXmJmaoqOkpaanqKmqsrO0tba3uLm6wsPExcbHyMnK0tPU1dbX2Nna4eLj5OXm5+jp6vHy8/T19vf4+fr/xAAfAQADAQEBAQEBAQEBAAAAAAAAAQIDBAUGBwgJCgv/xAC1EQACAQIEBAMEBwUEBAABAncAAQIDEQQFITEGEkFRB2FxEyIygQgUQpGhscEJIzNS8BVictEKFiQ04SXxFxgZGiYnKCkqNTY3ODk6Q0RFRkdISUpTVFVWV1hZWmNkZWZnaGlqc3R1dnd4eXqCg4SFhoeIiYqSk5SVlpeYmZqio6Slpqeoqaqys7S1tre4ubrCw8TFxsfIycrS09TV1tfY2dri4+Tl5ufo6ery8/T19vf4+fr/2gAMAwEAAhEDEQA/APXKKKKACiiigAooooAKKKKACiiigAooooAKKKKACiiigAooooAKKKKACiiigAooooAKKKKACiiigAooooAKKKKACiiigAooooAKKKKACiiigAqG5urW0j8y4lWNe248sfRQOTVDVdYh08eVGFku2GQn8MYPRpMfoK46e4uLqRpriRpJD3boB6KOgFeNjs1hhnyU9Zfgj2MDlc8QueekfxZv3XiZyStlAAOgkn5P1CKf5msS5vr27bdcS7z6BEUD/vkVWor5avja+I/iS07dD6ihg6OH/hx179Rc4o60lFcZ13LVtf31mc28u32KIwP/AH0M/rW3aeJjkLewcdPMg/mUb+hrmqK7KGNr4f8Ahy07dDjr4OhiP4kde/U9Gt7m2uoxLbypIh7qeQfQjqDUtedW9zc2kglt5GRx1x91h6MOhFdlperwaguxgI7pRl488MB/FGT2/wA+9fVYHNIYl8k9Jfg/T/I+Xx2Vzwy54ax/Fepp0UUV7B5AUUUUAFFFFABRRRQAUUUUAFFFFABRRRQAUUUUAFFFFABRRRQAUUUUAFFFFABRRRQAUUUUAFFFFABRRRQAUUUUAFFFFABRRRQAUUUUAFFFFABRRRQAUUUUAFFRPc2kZ2yXECH0eRFP5E05JoJf9VLG/wDuOrfyNTzxbsmVySSvYfWbq+pLp8HyYNzLlYVPOMdXYegrRZlRXdiAqKWYnoABkmvP7+8e+uprhs7SdsSn+GIfdH9T9a8vNMY8NStD4pbf5np5Zg1iat5/Ct/8iu7vI7u7FndizsxyWY9STTaKK+I3PtdgooopAFFFFABRRRQAU+OSSJ0kjYpIjBkZeoIplFNO2qBq+jO70rUU1G33HCzx4WdB2bsw9j/npWhXA6betYXcU+T5ZOycesbHn8uo+ld8CGAYEEEAgjoQec19xlmM+tUrS+Jb/wCZ8TmWD+rVbx+F7f5BRRRXqnlhRRRQAUUUUAFFFFABRRRQAUUUUAFFFFABRRRQAUUUUAFFFFABRRRQAUUUUAFFFFABRRRQAUUUUAFFFFABRRRQAUUUUAFFFFABRRRQAUUUUAV7y8t7GFp52wo4VRyzseiqPWuOvtZ1C9ZhvMMBziKIkZH+2w5NGsXzXt5Jhv3EBaKEduDhn/E1m18ZmOZTrTdOm7RX4n2OX5dCjBVKivJ/gGBSqWQhkJVhyGQlSPxHNJRXiHsmidY1F7Sezlk8xZVC+Y/+tVc5I3DrnpzWdRRWtSrOrbnd7GdOlCnfkVrhRRRWRoFFFFABRRRQAUUUUAFFFFABXbaBcm40+JWOXt2MDeuF5X9CPyria6nw+jWun3t4+dsjFkU9CIgRn8Tx+Fexk9RwxHlZ39DyM3gpYfXe6sdFRXPf21ff3IPptb/4qpY9cf8A5a26kesbEH8m/wAa9+OcYWTs218j5yWXV10v8zcoqpb6jZXBCrJsc/wSfKT9D0/WrdenTqwqrmpu6OKdOVN2mrBRRRWhAUUUUAFFFFABRRRQAUUUUAFFFFABRRRQAUUUUAFFFFABRRRQAUUUUAFFFFABRRRQAUUUUAFFFFABRRRQAUUUUAFFFFABUN3IYrW7kHWOCZx9VQkUlxeWVqM3E8ceegZvmP0Uc/pWTd6/pMkNzApnfzYpIwVjwvzKVz85B/SuTEYqlSi1KaT9Trw+Gq1ZJxi2vQ5EdBRR6UV+eH34UUUUAFFFFABRRRQAUUUUAFFFFABRRRQAUUUUAPjR5XjiQZeR1jQerMcCuw1EJZ6dbWcfQ7IvqqDcT+Jx+dZ/h7TWZxqEy4RQRbAj7xPBk+nYVc1wN5lqf4dkgH1yM171GjLD4GpWa1lZL0v+p8/i68a2LhRT0jq/X/gGPRRRXgnYFaFnqc9uVSUtJD0wTl0H+yT/ACrPorajXqUJc9N2ZnUpQqx5Zq6OxilimRZI2DIwyCP5Gn1y9hetaS/MSYHIEi+n+2PcV1AIYBgQQQCCOhB5zX3GAxscXTvtJbo+YxWGeHlbo9gooor0DkCiiigAooooAKKKKACiiigAooooAKKKKACiiigAooooAKKKKACiiigAooooAKKKKACiiigAooooAKKKKADpyelczqniBsvb6ewAGVe44OT0xEDx+P8A+upPEWpMg+wQthnUNcsOoQ9E/Hv7fWuWr5nNMylGToUXa27/AER9LlmWxlFV6yv2X6sczO7M7szuxyzOSzE+5PNNoor5jc+l2CiiikAUUVoafPpMIm+3WjzsxHlkEFVA6jaSOf8AP10pwU5craXmyKk3CPMk35Iz6K3xf+Fv+gW//fEZ/wDZ6cNQ8K/9Axv+/Uf/AMXXb9Tp/wDP6P4/5HH9bqf8+pfh/mc9RXRjUfCn/QOb/vxEf/ZqcNS8Kf8AQPP/AIDRf/FVX1Kn/wA/o/iT9cqf8+Zfgc1RXTDU/Cv/AD4/+Ssf+NOGqeFv+fJf/ASOn9Rpf8/ok/Xav/PmRy+RRkeorqhqvhb/AJ9F/wDARP8ACnDVfC//AD7oP+3Rf8Kr6hR/5/xF9eq/8+ZHJ5HqKMj1FdcNW8Mf88UH/bp/9jSjVvDP9yMf9up/+Jqv7Po/8/4/18yf7Qq/8+Jf18jlYYLi4YLBFJKx7RqW/Mjiug07w42Vm1AjAwRboc5/66MP5D863rW6sblM2ksTqvVY8Ar9V6j8qsV7GEyihG1SUuf8v+CeRis2rSvCMeT8/wDgAAFAAAAAAAAwAB2AqrfWi3kOzIV1O6Nj0DdMH2NWqRnRFLOyqo6liAB+Jr2atOFSDhPZniwnKElKO5yM1tc27FZY2X0OMqfow4qLI9a6WTVtOTI3s/r5aEj8zgVA2raaf+WEjfWOP+pr5GrgMLGT5a6/P8mfQU8VXa1pMwciithtT00/8uAP1SIVmXEkcsrvHEsSHGEXoMd+K8+vRp01eFRS+TOulUnN+9C33EVb+jXJkie3Y/NDgp7xnt+FYFXNNlMV7bns5MTfR+B+uK1y6u6GIi+j0fzIxlJVaLXbU6iiiivvj5QKKKKACiiigAooooAKKKKACiiigAooooAKKKKACiiigAooooAKKKKACiiigAooooAKKKKACiiigApHdY0d24VFZ2PsoyaWqWrOU03UGHXyHX/vr5azqz5ISn2TZpShzzjDu7HDTzPczTzv96aRpD7ZPA/DpUVFFfmzbk7s/RUlFWQUUUUhhRRRQAUUUUAFFFFABRRRQAUUUUAFFFFABRRRQBJDNPbypNA5SRDlWX+RHp6139jdC8tLe5AwZEywH8Lg7WH5155XaaJ/o+kRSy8L++n/AOAFiR+de/klWUakoN+7a54OdUoypxnb3r2Ll7fRWaAn5pXz5aZ6+59q5ye5uLl98zlvReir/urSTzyXEsk0n3nPA7KvZR9Kirjx+YTxUmk7R6L9WRhcJGhG7+IKKKK8w7QooooAKfESssLDqJIz+TCmVLboXnt0/vSxj/x4VcE3JJEy0TudfRRRX6WfFhRRRQAUUUUAFFFFABRRRQAUUUUAFFFFABRRRQAUUUUAFFFFABRRRQAUUUUAFFFFABRRRQAUUUUAFV763a6s7u3UgNLEyqT03dRmrFFTOKnFxezKhJwkpLdHF/8ACO6z/cg/7+j/AAo/4R3Wf7kH/f3/AOtXaUV439iYbu/v/wCAex/bWI7L7v8AgnF/8I7rP9yD/v7/APWo/wCEd1n+5B/39/8ArV2lFH9iYbu/v/4Af21iOy+7/gnF/wDCO6z/AHIP+/v/ANaj/hHdZ/uQf9/f/rV2lFH9iYbu/v8A+AH9tYjsvu/4Jxf/AAjus/3IP+/v/wBaj/hHdZ/uQf8Af3/61dpRR/YmG7v7/wDgB/bWI7L7v+CcX/wjus/3IP8Av7/9aj/hHdZ/uQf9/f8A61dpRR/YmG7v7/8AgB/bWI7L7v8AgnF/8I7rP9yD/v7/APWo/wCEd1n+5B/39/8ArV2lFH9iYbu/v/4Af21iOy+7/gnF/wDCO6z/AHIP+/v/ANaj/hHdZ/uQf9/f/rV2lFH9iYbu/v8A+AH9tYjsvu/4Jxf/AAjus/3IP+/v/wBaj/hHdZ/uQf8Af3/61dpRR/YmG7v7/wDgB/bWI7L7v+CcX/wjus/3IP8Av7/9aj/hHdZ/uQf9/f8A61dpRR/YmG7v7/8AgB/bWI7L7v8AgnF/8I7rB42wDPGfN6e/ArqZbQtYiziZU2xxRAkEjamPT1xVuiuqhltGgpRjf3lZnLiMwrYhxcre7qYP9h3H/PeL/vlqP7DuP+e8X/fLVvUVj/Y+E/lf3sP7Rr9/wRg/2Hcf894v++Wo/sO4/wCe8X/fLVvUUf2PhP5X97D+0a/f8EYP9h3H/PeL/vlqP7DuP+e8X/fLVvUUf2PhP5X97D+0a/f8EYP9h3H/AD3i/wC+Wqe00mS3uIppJUZY9xCqpzkjA61r0VcMqwsJKajqvNkyx9eUXFvfyCiiivUOEKo3+r6Ppahr++t7fPKrI48xh6qi5Y/lXPeMfFLaNGljYlTqVwm8uQGFrCcgOQeNx52j2z7HyaaWaeSSe4leWaQlpJZmLuxPdmbmgD2L/hOvB+7b9uk643fZbnb+eytew1nRdUB+wX1vcEDLIjYkUepjbD/pXhgsNTaH7QLG9MGM+aLeYx49dwXFQxySxSRzQyPHLGwaOSJirow7qy80wPoiiuN8G+Kn1dW07UGX+0YI98cvC/aol4JIHG8d/Xr647KkBmah4g0DS5lt9Qvo4JmjEqo6yElCSob5FI7GksPEPh/VJzbWF/FPOI2lKIsgOxSATllA7ivO/iN/yHLT/sGQ/wDo6amfDz/kYH/7B1z/AOjIqAPW6KKKACiisHxR4gj0CwEiBXvbktFZxN93cBlpHx/Cvf6gd+ADSv8AVdJ0uMS6heQ26t90SN87/wC4i5Y/gK55/iF4UViqtfOB/ElswU/TeQf0ryi6u7u9nluryeSa4kOXklOT9B2AHYDir1p4d8SX8IntdMuZISNySELGrj1TzSM/hTA9WsPGPhbUHWKO+EUrnCx3aNAWPoGf5P8Ax6ugr56ubW7tJXt7u3lgmUfNHOhRsHvhu1dj4M8VXFncW+k6hK0ljcMsVrJK2WtZW4VNx/gPT2Pt0APVKgvLyzsLaa7vJVhtoQplkYMQoZggyFBPUjtU9c940/5FjWv+udv/AOlEdIBx8ZeDhk/2tBx/sT//ABFbyMrqjocq6hlPqpGQa+dG+6/+6f5V9DWf/HpZf9e8H/oAoALq6tbG3nu7qURW8C75ZGBIRc4yQoJ/Ssb/AITLwcOf7Wg/74n/APiKf4u/5FrXv+vQ/wDoa14e33W+h/lQB9FRSRzRxTRMGjlRJI2GcMjjcDzTqp6X/wAgzSf+vCz/APRS1coAwn8X+EYnkifVYVeN3jdSk2VdCVI4Sm/8Jl4O/wCgtB/3xP8A/EV45f8A/H/qf/X9ef8Ao56dBpurXUYltrC9niJKiSC3lkQkHBAZARxTA9rtfEfhq8YJb6rZO56I0qox+iyYNatfPE9vcW7mK5glhk67J43jbHrtcA1veH/FeqaJLHG8klzppIEttIxYxr3aBm5BHp0P6gA9poqK2uLe7t7e6t5BJBcRpLE69GRhkGpaQGRe+JPDenXMlpe6hFDcxhC8bLKSodQy8qpHI96r/wDCZeDv+gtB/wB8T/8AxFeceOf+Rn1P/rlZf+k6Vg29pfXbOtpa3FwyAM4t4nlKg8AsEBpgey/8Jl4O/wCgtB/3xP8A/EUq+MPCDsiLqsBZ2VFGyblmO0D7leRf2L4g/wCgTqX/AICT/wDxNS22ja8tzZsdK1IKtzbsxNpOAAJFJJO2gD3aoLy8s7C2mu7yVYbaEKZJGDEKGYIMhQT1I7VPXPeNf+RY1r/ct/8A0ojpAO/4TLwcOf7Wg/74n/8AiK3lZXVHU5V1DKfUEZBr50b7rfQ/yr6GtP8Aj1s/+veH/wBAFAE1FFFABRRRQBm6rrmkaKtu+ozmIXDOkQWOSRmKDLHEYJwOPzrMj8ceEZJIo1vZA0jpGpa2uFUFiFGWK4Arz3xnqv8AaeuXKo2bawBsoMdCyHMrjHq2R/wEVzZ5yPWmB9F0Vg+EtV/tbRLKV23XNuPsd1nqZIgAGP8AvDDfjW9SAKoajrOj6T5H9o3aW/n7xDvVzv2Y3Y2A9Mir9edfE3p4e/3r/wDlDQB03/CZeDv+gtB/3xP/APEUf8Jl4O/6C0H/AH7n/wDiK8VVXdgqKzs3CqilmP0A5qRra9UFmtbpVHJLQSgD6krTA93sdY0XU8iwv7a4YDJSOQeYB6lDhv0q9XztG8kbxyxO6SIQ0ckbFXRh3Vl5r1/wX4gn1qxmhvGDX1iUSR8AGaJwdkhA78EN9M96QHVVm6hr2haVLFDqF7Hbyyx+bGrrISyZK5+RSK0q8s+JP/IW0v8A7Bx/9HNQB2n/AAmXg7/oLQf98T//ABFH/CZeDv8AoLQf98T/APxFeNWtpe30wt7OCWecqziOIbnKr1OPatD/AIRnxV/0Br//AL9j/GmB6r/wmXg7/oLQf98T/wDxFbdvcQXUEFzbuJIJ40licAgOjjIYZ5rw/wD4RnxV/wBAa/8A+/Y/xr2PQoZrfRdFgnjaOaKwto5Y3GGR1jAKkeopAS3Op6baSeVPPtkCCR1RJJDHGeA8nlKdq9eTjp7Uf2rov/QSsP8AwKg/+KrndSsNQTUJ5BDePHJO11DLZB2eRnNqPLYo67WQRsqswIw/1qz5Wo/9Cnp3/f8As/8A4mgDyG8vLvULma8u3L3E2zex/wBhBGB+QFdp4B0C0vmudWvYlljtphBaRSANGZgodpGU8HGQF/H044QhlJDqVYdQeCO9el/DjUrc2t9pLsq3Ec7XkKk4MkUiqrbf90jn6imB39cR4o8Ff2nPFe6QLa3uXJF4khaOKUYyJAEU/N2PHOfUc9vWHrfijR9Bktobzz5Jp1ZxHbKjuiDjc4ZlwD0H0PpSA4zTfBHivTtQ0++jm07da3EcpAnmyyZw6/6ruMj8a9Prk7Px5oV9d2llb22pGa6mSGPdDEFDMerESdB1P0rrKAPJ/iN/yHLT/sGQ/wDo6amfDz/kYH/7B1z/AOjIqf8AEb/kOWn/AGDIf/R01M+Hn/IwP/2Drn/0ZFTA9booopAFePePLx7nxDcwk5jsYILeMdgWUTOfxLfpXsNeNeObZ7fxHfuwIS7itrmMnuPLETY/FTQAvgnSLbVtYzdIHtrGH7U8bDKySbgkasPTOSfp717IAAABwBwAK8a8Favb6RrH+lMEtr6H7LJIxwsT7g8bsfTOQfr7V7KCCAQQQQCCOQQe4oA53xfpFtqmjXsjIv2qxhlu7WXA3KY13smfRgCCPoe1eLdRkEjuCOo969u8WalBpuh6kzuomuoJLO2Qn5nkmUpwPYEk/SvEeg+gpge96Jdvf6RpF45zJPZwPIT3k2AMfzzWd40/5FjWv+udv/6UR1f0K1ey0bRrWQESQ2VusgPUOUDMPwNUvGSs3hnXABkiGJz9EmjY/wAqQHiTfdf/AHT/ACr6Gs/+PSy/694P/QBXzy3KsPUEV9A6XPFc6bplxEwaOW0t3Ug56oOPw6GmBneLv+Ra17/r0P8A6GteHt91vof5V7b4xkij8Na35jBfMgWJMnlpHdQqivEm+630P8qAPoDS/wDkGaT/ANeFn/6KWrlVdORo9P0xGGGSztUYehWJQatUgPn2/wD+P/U/+v68/wDRz16v4A/5Fy3/AOvq9/8ARpryi/8A+P8A1P8A6/rz/wBHPXq/gD/kXLf/AK+r3/0aaYG3q+kWGtWctpdxqcq3kygDzIJMcPGevH614RPDJbzXFvL/AKy3mlgkx03xsUOPyr33UL+z0y0uL27kEcMKliT1ZuyIO5PQCvBLmd7q5u7pxh7m4muGHoZXL4/DNAHqHw5vJJtIu7RySLK8ZY89o5lEoUfju/Ou1rh/hvbPHpeo3TAhbq92x57rCgQkfiSPwruKQHjPjn/kZ9T/AOuVl/6TpTvB+vadoFzqU16twyXMEMcf2dFc7kdmO4Mw9ab45/5GfU/+uVl/6TpWbpGiaprclxFp6RM9uiSS+bIIwFclRgkH0pgejf8ACxfDH/PHU/8AwHj/APjlXtK8ZaHrF7FYWsd6s8qSupmiRUxGu45Icn9K4L/hAfF3/PGz/wDApf8A4mtvwt4S8Q6VrVrfXkdstvHFcoxjnDtmSMqMKBQB6NXPeNf+RY1r/ct//SiOuhrnvGv/ACLGtf7lv/6UR0gPFG+630P8q+hrT/j1s/8Ar3h/9AFfPLfdb6H+VfQ1p/x62f8A17w/+gCmBNRRRSAKyPEmqDR9Hv7wECbZ5NqPW4l+VMfT7x+la9eW/ETVftGoWulRtmKwTzp8dDcSjgH/AHV/9CoA4b5j6sxP1ZmP9TW54h0CfQm0pZCzC8sY5ZCei3S/66MewyMfWqGlXNnZ6jYXd5DJNb20wnaKLYGd0+ZB8/GM4J+ldN4m8WaT4gsEtlsLuK4hnSe3lkaEqp+66ttOcEE/jj0pgN+H+q/YtWewkbEGppsXJ4FzECyH8RuH5V61XzvFLLBLDPCxWaGRJomHVXRgyn86970rUItU06wv4sBbmFXZR/BJ910/A5H4UgLtedfE3p4e/wB6/wD5Q16LXnXxN6eHv96//lDQBy3hL/kZNC/6+JP/AETJXtjvHGpeR0RAPmZyFUD3J4r54QyKymMuHB+Uxlg4PsV5p0kl04CTy3DD7wWd5GHpna5pga/imXSptd1GTTPLNqxjBaEARPOFxIyY4wT37nJ789F8NYpTf6zOAfKS0hhY9vMeQuB+QP51x+madcatfW1hbvDHLOSFad9iAKNx6ck46AV7VoWi2mhWEdlbkuxYy3EzABppmABYgdB2A7AfiQDUryz4k/8AIW0v/sHH/wBHNXqdeWfEn/kLaX/2Dj/6OakBzvh/V10PU4tQaBpwkM0Xlq4jJ8wAZ3EHp9K7P/hZsH/QGm/8Ck/+N1xGi6TPrd/Hp8E0cMjxSyh5QxXEYBIwvNdR/wAK11j/AKCVj/37mpgalt8R4Li5tLcaRMpuLiGAMbpCF81wm7Gztmu9rzW0+HerW93ZXDajZMtvc287Ksc2WEciuQM/SvSqQBRRRQB5r478NSpK2t2EO6FkRb+KJeYiihFmVV/hwAG9MZ7nHBQzTwSxT28rxTRMHiliYq6MO6sK+h+CMHkHrmvKvH+laVp09rNY2sdu9yGebyiwRm3HkR52D8AKYFAeOvF4h8r7XATjb5rW0Zl9M5+7n/gNc7cXFzdTS3N1NJNPKd0ksrFnY9OSf0qEk7c16P4A0nSbmCW/uLSOW7hlURSS7nCcHlUY7M++KAJvAvhme1P9tahEY5njKWEMgw8cbjDTOD0LDhR6Z9eO/oopAeT/ABG/5Dlp/wBgyH/0dNXM6bqmo6Rcm7sJVjnMTQlmjSQbGIJG1wR2FdZ8Qo0bWrQkc/2bF3I/5bTelcf5UX90/wDfTf40wN3/AITnxj/z/Rf+Alv/APE1c0rxl4rutU0m2mvImhuL61hlUW0ClkeQKwBC5rlvKi/un/vpv8a0dDiiGtaEcdNSsu7f89V96APca5jxh4dbXLKOW1C/2jZb2twcATRt9+Ek+uAV9x7109FID52kjkieSKWN45Y2KSRyKVdGHBVlPOa0rLxB4i0+NYbPUrmOFeFiJWSNR6KsoYD8K9U8VaNo15Y3V5cWcT3UMX7udS0coxwAWjIJHsc14rISruo6AkD/ACaYFy91DUdRlE9/dTXEoBVWlbIRTzhFGFA+grpfBvhmfVLuDUbuIrplrIJE3jAu5UOVVAeqg8sfbHriTwNpGk6lPK9/apcGJd6CRn2ZB/iQHafxBr1dVRFVEVVRQFVVACqo4AAHFAC1Dd20N7a3dpMMxXMEsEnrtkUqSKmopAeAalp15pN7cWF2hWWFiA2Dtljz8sqH0P8A9btV7SvE3iDRozBZXK/ZyxYQXEYljVjySmcMM98GvXNd0vStSsp/t1rHMYIpJIXO5ZI2Ck/K6EMPfmvC5QEnmReFVyFHXAB9TzTA0tW1/WtbaP8AtC43xxEtFDEojhRjxu2jqfck1L4b0afW9UtrdUJtonSe+kx8qQqc7SfVug/+tWZZok15bQyDMbyKrDJGQT6rg/rXvGmadp2m2sVvY20cERAdggOWYjlnZssT7kmgC70ooopAfPt//wAf+p/9f15/6Oerdl4g8Q6dAtrY6hLBbqzusapEQGc7ifnUnn602/ii+36nwf8Aj+vO7f8APZ/eq/kxf3T/AN9N/jTAdfanqupOr395cXJTOwSv8iZ/uouFH5VY0XQ9S126W3tEIiVh9puWU+VAnck9C3oP6cjpvCeg6HqEp+2Wgm2qSA8s4XIHdVcD9K9Mt7e1tYkgtoYoYUGEjhRUQfQLxQBHYWVtptnaWNsu2C2iWNM8k45LMfUnJP1qzRRSA8Z8c/8AIz6n/wBcrL/0nStj4af8f2t/9elt/wCjHrO8bRxt4k1IkcmKz7kf8sE9K1vhyiLe60VGM2tt3J/5aP60wPSaKKKQBXPeNf8AkWNa/wBy3/8ASiOuhrA8YgN4b1kHpst/b/l4j9KAPEzyCPWukTxv4vjREW9iCoqoo+y25wFGByVrE8qL+6f++m/xo8qL+6f++m/xpgbv/Cc+Mf8An+i/8BLf/wCJr0rwrqF7qeh2N7eyCS5la4DuqKgISZ0HyoAOgFeMeVF/dP8A303+Nev+ClC+HNNAHG679T/y8SetAG3fXkGn2d5eznEVrDJM/bO0ZCj3PQfWvArq5nvLm6u5zma5mknlP+053YHsOg+les+P2caCqBiFlv7aOQAkbkAeTace4B/CvK1ghZ41KkhnRSNzcgkA96AOk0vwHqup2Fpfi8t7dbpPNjiljkZxGSQrEggcjkfWrv8AwrXVf+gpZ/8AfmX/ABr02OOOJI4o1CxxosaKvRVUYAFOpAeA6np9zpV/d6fcYMtu4XcoIWRWAZXUHsQa7n4car/x/wCjSt0ze2gPocLKg/8AHT+JqD4iW8H9paXLsAkks5FkYEgsI5Plzj0yawPDX7nX9DeIsrG8SMkMeUkBRlOexBpge11518Tenh7/AHr/APlDXotef/EhEZdA3DOGvu5HaH0pAch4S/5GTQv+vh//AETJXpHjLw//AG1p/nW6A6jYq0lvgczR9XgP16r7j3rz/wAKRRjxFohA5E8mOT/zxk969npgfO8cksMkUsTvHNC6yRuvDxyIcgj3Br23wzrsWvabHcHat3DiG9jH8MoH3gP7rdR+XavNvF9naQeIdUWGIIrmCZlUsB5ksSu7Yz3JJq14Fd4fEFvHEzLHcW9yk6gkrIEQyLkH0PT/AOvyAetV5Z8Sf+Qtpf8A2Dj/AOjmr1OvMviIiNqmmFhk/wBnsOpH/LZvSkBxunajf6VdLeWMix3Co8asyLINr8EbXBFbX/Cc+Mf+f6L/AMBLf/4msLyov7p/76b/ABo8qL+6f++m/wAaYG7/AMJz4x/5/ov/AAEt/wD4mvUPDl5d6homk3t24e4uIC8rKqoGbewyFXivEvKi/un/AL6b/GvZ/CYC+HNDA6C2/wDZ29aANuiiikB//9k=;container=0;" vertex="1" parent="esbHECSBwcRWjfnft_Ba-1">
          <mxGeometry x="340" y="60" width="121.54" height="40" as="geometry" />
        </mxCell>
        <mxCell id="w12pl_d0Eym6oQ7OZC4N-17" value="" style="edgeStyle=orthogonalEdgeStyle;rounded=0;orthogonalLoop=1;jettySize=auto;html=1;" edge="1" parent="esbHECSBwcRWjfnft_Ba-1" source="w12pl_d0Eym6oQ7OZC4N-13" target="w12pl_d0Eym6oQ7OZC4N-14">
          <mxGeometry relative="1" as="geometry" />
        </mxCell>
        <mxCell id="w12pl_d0Eym6oQ7OZC4N-13" value="Frontend" style="shape=image;verticalLabelPosition=bottom;labelBackgroundColor=default;verticalAlign=top;aspect=fixed;imageAspect=0;image=data:image/jpeg,/9j/4AAQSkZJRgABAQEAAAAAAAD/4QBCRXhpZgAATU0AKgAAAAgAAYdpAAQAAAABAAAAGgAAAAAAAkAAAAMAAAABAAAAAEABAAEAAAABAAAAAAAAAAAAAP/bAEMACwkJBwkJBwkJCQkLCQkJCQkJCwkLCwwLCwsMDRAMEQ4NDgwSGRIlGh0lHRkfHCkpFiU3NTYaKjI+LSkwGTshE//bAEMBBwgICwkLFQsLFSwdGR0sLCwsLCwsLCwsLCwsLCwsLCwsLCwsLCwsLCwsLCwsLCwsLCwsLCwsLCwsLCwsLCwsLP/AABEIAdMB2gMBIgACEQEDEQH/xAAfAAABBQEBAQEBAQAAAAAAAAAAAQIDBAUGBwgJCgv/xAC1EAACAQMDAgQDBQUEBAAAAX0BAgMABBEFEiExQQYTUWEHInEUMoGRoQgjQrHBFVLR8CQzYnKCCQoWFxgZGiUmJygpKjQ1Njc4OTpDREVGR0hJSlNUVVZXWFlaY2RlZmdoaWpzdHV2d3h5eoOEhYaHiImKkpOUlZaXmJmaoqOkpaanqKmqsrO0tba3uLm6wsPExcbHyMnK0tPU1dbX2Nna4eLj5OXm5+jp6vHy8/T19vf4+fr/xAAfAQADAQEBAQEBAQEBAAAAAAAAAQIDBAUGBwgJCgv/xAC1EQACAQIEBAMEBwUEBAABAncAAQIDEQQFITEGEkFRB2FxEyIygQgUQpGhscEJIzNS8BVictEKFiQ04SXxFxgZGiYnKCkqNTY3ODk6Q0RFRkdISUpTVFVWV1hZWmNkZWZnaGlqc3R1dnd4eXqCg4SFhoeIiYqSk5SVlpeYmZqio6Slpqeoqaqys7S1tre4ubrCw8TFxsfIycrS09TV1tfY2dri4+Tl5ufo6ery8/T19vf4+fr/2gAMAwEAAhEDEQA/APXKKKKACiiigAooooAKKKKACiiigAooooAKKKKACiiigAooooAKKKKACiiigAooooAKKKKACiiigAooooAKKKKACiikLIv3mUfUgUm0ldhuLRULXVsv8ef90E1E18n8KMfqQK4amY4Wn8VRfLX8jVUZy2RborOa9nP3Qq/hk/rUTTzt1kb6A4H6V51TPsNH4E3+BtHCze5qllXqQPqQKia5t16uCfRef5Vlkk9ST9eaSvOqcQ1H/Dgl66/5G0cIurNBr6MfdRj9cComvZj91VX8yaqUZFedUzjF1Pt29NP+CbRw9NdCcXdyDncD7FR/StKN96I/94A1jdSAOp4H41sxqERFH8KgV7OQ161WU+eTaXfXU5sVCMUrIdRRRX1JwhRRRQAUUUUAFFFFABRRRQAUUUUAFFFFABRRRQAUUUUAFFFFABRRRQAUUUUAFFFFABRRRQAUUUUAFFFFABRRRQAUUUUAFFFFABRRTWliX7zoPqRmplJRV5Ow0m9h1FQNd2y/xFv90E1E18P4Yz/wI4/lXDUzPCU/iqL5a/kaqjUeyLlFZrXlwehVfoM/zqFpZXzukY9OMnHHsK82pxBh4/Am/wAP6+42jhJvdmsXjXO51GPUiomu7Zf48/7oJrLyKM15tXiKq/4cUvx/yNo4OPVl9r5f4Yyfdjj+VRNeznptX6DP86qZo3V5tXOMVU3nb00No4aC6Epmnb70jn8cfypn1/WmZpM15tTESqO8236s2UEth9GRTM0max9qVyj80ZpmTRmp9qx8o7dRuptJU+0Y+UdmjNNoqeZjsT2q+ZcRL2B3n/gPNbNZ+nJ/rZCPRFP6n+laFfonD9D2eEU3vJ3/AER4+LlepbsFFFFfQHIFFFFABRRRQAUUUUAFFFFABRRRQAUUUUAFFFFABRRRQAUUUUAFFFFABRRRQAUUUUAFFFFABRRRQAUUUUAFFFFABRRRQAUUUdKAMqeeR5HBYhQxAAOBx9KgyKYepx0ycD8aM1+S18VOtUc5O92e/GmoqyH5pM02krn9oy+UdmjNNoqeZjsLmjJpKKXMx2FopKKVwCiiikAUUUUDCiiigAooozQAUUU6JfMkiT+84B78d6uEHOShHd6Cbsrs17RNkEQ7sN5+rc1PR04or9fo0lRpxpx2SS+4+dlLmk5MKKKK1JCiiigAooooAKKKKACiiigAooooAKKKKACiiigAqOeeG2ieaZwsaDkn+QHrUlcx4inZriC3ydkUfmEdi7cZ/KurC0Pb1VDocuLxH1ek6nUml8RncRDbAoDwZHwSPoo/rT4/EcJx5ttIvujKw/XFc3RX0P8AZ+Htbl/FnzH9p4m9+b8EdhHrmlScGVo/+uqMP1GRVuO8spf9XcQt9HX/ABrhKK55ZTTfwto6oZzVXxRT/A9C68iiuCjuLqL/AFU8yf7rsB+WauR6zq0eB54cf9NUVv1GDXJPKai+GSZ2Qzmk/ii1+J2NFc1F4juR/rbeN/dGZD+uauR+IbFseZHNGe+AHH5g/wBK5Z4DER+zf0OyGY4af2reuhs0VRj1bSpcBblAT2kyn6sMVcSWKTBSRGB6bWB/lXLKnOHxJo64VIT+FpjqKKKzNAooooAKKKKACiiigApGOFc4zhScevFLTZf9XL/uN/Kom7RbGtzB68+vNFFFfjZ9IFFFFABRRSUALRSUUALRSUUALRSUUAFFFJQMWikopALRSUUALVzT03TM/ZF/VuKpVraegWAvjmRifwHAr3Mioe2xsW9o6/dt+NjlxcuWk/MuUUUV+mHhhRRRQAUUUEgDJOAO5oAKKrTahpsGfNu7dCMnBkUtx/sjms+XxLosf3ZJJTzjyo2x+bYrop4atU+CDfyA2aK5eXxan/LCyYn1lkA/RQf51nzeJ9Xk/wBWIIR/sIWP5uTXbTynEz3VvViudxTJJoIhmWWNB/tsq/zrzuXVdWmGJL2cj0Vtg/JMVSYs3LEt/vEn+dd1PIpP45/chnoUuuaJF968jY+kW6T9UBFZ8vizTl/1MFxKfcLGP1JrjKK7qeS4ePxXZSR1H/CXy7v+PFNmf+ex3Y/75xW9puq2WpozQkrImPMikwHXPfjqPevOKuaXcyWuoWUqZ/1qxuP7yOdpFGKymhKm3SVmiuW56VRRRXxxmFc94itWzBeKOAPJl9ucqf6V0NMmijnilhkGUkUqw+veujDVnQqKZzYqgsRSdM4Ciprm3ktZ5YJB80bYB/vL2YfWoa+xjJSV0fDyi4txe6CiiimIKKKKACiikpjSCgEqcqSp9VJB/SikplpFqLUNSh/1d1MB2BbcPybIq5H4g1RPv+TKP9tNp/NcfyrJpKxlhqU/iijrp4itD4ZM6OPxKP8AltaH3Mcn9GH9auR+INKfG5pYz/tocD8VzXIUlckssw8tlb0Z2wzGut3c72O/06b/AFd1Ac9t6g/k3NWQQeQQR7c15zxT45p4iDFLImP7jsv6A1yzydfYn96OyGaP7UT0OiuIj1jV4ulyzj0lCv8AqRmrkfiW+XHmwQOO+3chx+ZrknlNePw2Z0xzGlLe6OrqK5/495+SP3bcjr0rGj8TWbY823mT3Uq4/pVltX0y6hkjimPmOpCoyMrE/iK8rHYWvRw9SUovRP8AI7aGIpVJxUZdSnRSZozX4sfVC0UlFAC0UlFAC0lFJQMWikooAWikooAWikooAWkoooGFFFFAAASQB1JAH1PFdDGnlxxp/dVV/IVyt5cvaQ+bGQJQyiMkBgG65wax5dU1abPmXk5B6hW2L+S4r9M4NyapiKM8VdJN2Xy1f5/geNmNZKSh8z0F5YYgTJLGgHUuyqP1qjLreiw53XcbEdosuT9NoxXAMzMcszMfViWP5mm1+iQySC+Obfpp/meV7TyOyl8VacufKhuJT2JCov6nP6VQl8V3jZENrCgPQyMzkflgVzlFd1PK8ND7N/Vj5makuv63Ln/SfLHpCiL+vJ/WqEt1dzEma4nkP+3Ix/mahorthQpU/gil8g1E4paKStykgoopKC0goopKZokFFFJTLSCtPQ7Nr3UbZcfu4GFxMewVDkD8TgVmV6DoOnf2fZJ5i4uLjEs2eq5Hyp+FebmWKWHoO270QSdka1FFFfCmAUUUUAYuvWXmwi7jH7yAYkx/FFnr+FcvXoRAYFSAQQQQehB7GuJ1KzayupI8fu3zJCfVCen4dK+gyvEc0fYy6bHzebYXll7ePXcp0UUV7R4IUlFFMpIKSiimWkFFFJTNEgoopKZaQUUUUy0gpKKSgpIWkoopmiQVYsf+PuD/AIH/AOgmq1W9OGbpfZHP8hXj57LkyzEP+5L8jvwEb4mn6o3KSiiv5vP0UKKKKBhRRRQAUUUUAFFFJQAtFJRQAtFJRQAtFJSUhi0ZpKKAsZGsS5eCEdFUyH6k4FZVT3kvnXNw/beVX6L8tV6/pTh7BfUcto0WtbXfq9X+dj5TFT9pWlIKKKSveMkgooooKSCkooplpBSUUUy0gopKKZokFJRRQWkFFFKqvIyIilndgiKOpZjgAUy0jZ8O6d9tvPOkXNvaFZGBHDyfwr/U/T3rvapaXYpp1lDbjl8b5m/vStyx/oPpV2vgswxX1ms5LZaL+vM5pSuwooorzyQooooAKztXsvtlqxQfvocyRep9V/GtGitKdR0pqcd0Z1acasHCWzPPaStXW7L7Lc+bGuIbjLjA4WT+Jf61k19nRqKrBTj1PiatGVGbhLdC0lFFakpBSUUUzRIKSiimWkFFFJTLsLSUUlMpIKKKSg0SCiikplpBV3TBm5Y+kTfqRVKtDSv9bOf+ma/+hV87xRLkyiu/L82keplcb4uH9dDXopKSv54PvhaKSikAtFJRQAtFJRQMWkoooAKKSigBaKSigBaKSigYtQ3MvkwTyZ5VDt/3jwKlrN1eXbDFF3kfcfonNetkuD+vY+jh+kpK/otX+CZjXn7OnKRi/wCTRSUV/Th8pYKKKSgqwUUoDN90E/7oJ/lU6WV9J92BwPV/lH/j1c1fGYfDK9epGPq0vzNYU5S+FXK9JU09rc2+PNjwG4DAgqT6ZFQ1ph8RSxMFVoSUovqndFuDi7NBSUUldBSQtJRRTLSCiikoLSCul8Lad50z6hKv7uAlIMjrLjlh9P6+1c/bW813PBbQjMkzhF9B6k+w616ZaW0VnbQW0X3IUCgnqx6lj7nrXi5xi/Y0vZR3l+X/AASKjsrE9FFFfGHMFFFFABRRRQAUUUUAVr+0S9tpYDgMRujY/wALjoa4Z1eN3jcEOjFGB6hgcEV6FXM+IbHY6Xsa/K5CT4HAb+Fz9elezleI5Zeyls9vU8fM8Nzx9rHdb+hgUUUlfSngJBRRRQWkFFFJTKSCkooplpBRSUUzRIKKSimWkFFJRQXYK0tKHNw3si/zNZtaelZ23B9WQfkDXyXGUuXJ6vny/wDpSPXyiN8XF+v5GnRSUV+An3ItFJRQAUUUUgCikooAWikooGLRSUUALRSUUAFFFFABVDUbSS4WN4uZI8jaTjcp9Per9Fd2X4+tl2JhiqHxR77dmn6oipTjVi4S2Zzq6fft/wAsSv8AvlR/WrCaRcHG+WNf90Fj/StrNGa+uxHHma1dKfLD0V/zbOKOX0VvdmamkWw+/JI/0wo/SrKWNinSBCfVssf/AB6rFFfOYnPsyxX8WvJ+V7L7lZHVHD0obRQKqL91VX/dAH8qWkorx23J3ZvYqak0Ys59+Pm2hP8AfzxiucrQ1W482YQqfkh4PoXPX8qzq/oLgvLp4HLIupvUfNbsmlb8Ff5niYqanU06BRRRX2hzpBSUUUy0gpKKt6bZSajeQWq5Csd0rD+CJeWP+FTOUYRc5bIu1tWdL4U07ZG+pSr80u6K2BHRAcM4+vT8PeuppscccMccUahUjRUQDoFUYAp1fnuLxEsTVdR9fyOGUuZ3CiiiuUkKKKKACiiigAooooAKjnhjuIZYZBlJEKN+PepKKabTuhNXVmef3NvJazzW8n3o2Iz/AHl6hh9ahrqvEFiZoVu41/eQAiXHVovX8K5Wvs8JiFiKSn16+p8tiaHsajj06BSUUldZgkLSUUUzRIKSiimWkFJRRTNEgpKKKCkgopKKZaQVraX/AKmU/wDTU/8AoIrIrZ00YtifWRz+XFfEcdS5cqa7yivzf6Ht5NG+Jv5Mu0UUV+En2QUUUUAFFGaTNAxaKSigBaKSigBaM0lFABmiikoAWikopDFopKKAFopKKACiiigAqC7nFvBJJ/EBtQerngVPWDqlx5swiU/JDwfdz1/KvpOGcpea5hCjJe4vel6Lp83oYYip7ODfUoEkkknJJJJ9SeaSikr+lEraI8NIKKKSmWkFFFJTLSCu88M6abO0NzKuLi7AbBHzJEPur+PU/wD1q5fQ9OOo30aMP9HgxNcH1UHhPxP9a9GAAwBwBwMV81neLslh4+r/AERhWlb3UFFFFfKnKFFFFABRRRQAUUUUAFFFFABRRRQAjKrBlYAqwKkHoQeCK4XU7M2N3JCM+W3zwk90Pb8Old3WbrNib20bYAZ4cyRe/qv416OX4n2FW0tn/VzixlD2sLrdHE0UUlfXngJBRRSUzRIKKKSmUkFFFFMtIKSiimWkFJRRQaJBW3p/FrH7s5/WsOt2yGLW3/3M/mTX574gTtl1OPea/wDSZHvZLH99J+X6os0UlFfiR9YLRSUUALRSUUALSUUUAFFFJQMWikooAWikooAWikpKAFopKKBi0UlFAC0UlFAEN1OLeCST+LG1B6selcySSSSckkkn1J5q/qlx5kwiU/JD1x3c9fyrPr+gOCco/s/AKtUXv1dX5L7K/X5njYqp7SdlsgopKK+5OdIKSiimWkFHJIAGSTgAdST2FJW/4Z037XefapVzBaEMM9GmPKj8Ov5VjiK0cPTdSWyHJqKuzqND00adYxow/wBImxLcHuGI4T8OlalFFfnVWrKrN1J7s81tt3YUUUVmIKKKKACiiigAooooAKKKKACiiigAooooA4zXbAWl15sa4gudzrjosn8S/wBRWTXf6hZrfWs1ucBiN0bH+GReVNcC6PG7xuMPGzI4PZlOCK+uy3E+3pcst4niYqj7Od1sxtFJRXqHKkFFFJTLSCiikplpBRRSUzRIWkoooLSCt+1G23tx6Rr+vNc+ehroYeIYf+uafyFfmPiJO2GoQ7yb+5f8E+hyRe/N+SJaKSivx0+mCikooGLRSUUALRSUUAFFFFABRRRQMKKKKACiiigAoopKAFopKKQC1BdTi3gkk/iAwg9WPSpqwtUuPMmEKn5Ievu56/lX0vDOU/2tmEKMl7i96XounzehhXqezg31KBJJJJySSSfUmkopK/pVK2iPFSFpKKSqLSFpKKKC0h8cck0kUUSlpJXVEUdSzHAFemabYx6dZwWqYJQZkYD78jcs1cz4T03fI+pSr8kZaK2B7v0Z/wAOg/8ArV2VfIZ1i+eaoR2jv6/8A48RO75UFFFFfPHKFFFFABRRRQAUUUUAFFFFABRRRQAUUUUAFFFFABXLeI7DZIt/GPlkKxzgDo/RW/Hp/wDrrqajuIIrmGWCUZSVSre2e49xXVhMQ8PVU+nX0Ma1NVIOJ5xRU11by2lxNbyj5o2Iz/eXqGH1qCvuItSSa2PF5bOzCikoqi0goopKZaQUUUUy0gopKKCkgro1ACqPQAD8BXOLyyj1YD8zXR+lfk3iNP8A3aH+J/8ApJ9Lksfjfp+otFFFfk59CFFFJQAtFJRSAWikooAWkoooGFFFFABRSUUALRSUUALRSUUDFpKKKAIbqcW8Ekv8QGEHq54FcySSSSckkkn1J71f1S48yYQqfkh6+7nr+VZ9f0FwTk/9n5eq1Re/V1fkvsr7tfmeRiZ887LZBRRSV90c6QUUUUFpBU1pazXtzb2sQ+eZwuf7q9WY/Qc1BXa+FNN8qF9QlX95cDZBnqsIPLf8CP8AL3rjx2KWFoup16eoqkvZxudFbW8VrBBbRDEcKKi+px3Pualoor88k3J3Z5O4UUUUgCiiigAooooAKKKKACiiigAooooAKKKKACiiigAooooAwPEdgJYRexj95ANsuP4os9T9K5GvTGVWDKwBVgQwPIIPGDXAapYtYXckOD5TZkgPrGT0/DpX0+UYrmj7CW629Dz8TSs+dFKkoor3jmSCiiimXYKSikoLSFpKKSmWkPi5lhH/AE0T/wBCFdFXOI2x43xnYytj1wc1vLPbuodZE2n1YAj2Oa/JPEPD1p1KFSMW4pNXXe60Po8nlFRkm9SWiqr31mmR5m4+iAt/Kqz6qP8AlnET7uQP0FfD4XhvNcX/AAqErd37q/8AJrHqzxdGG8kadGcc9qw31G8fOGVB/sDn8zVd5ZpPvyO3+8xI/KvqcL4e42pZ4ipGHpeT/Rficc80pr4E2br3VrH96ZM+gO4/kKjTULN2C7mGTgFlIU596w6Q19LS8PcBGDVSpJy76K3ys/zOV5nVb0SsdPRTIwwjiDHJCICfU4p9filSPJNxTvZn0C1VwopKKgYtFJRQMWikooAWkoopAFFJRQAtQXU4t4JJP4gMIPVjwKmrD1S48yYRKfkh6+7nr+VfTcMZR/a2YQoyXuR96XounzehjXqezhfqUCSSSTkkkk+pPNJRRX9LpW0R41goopKZaQUUUmaDRIv6VYPqV7DbDPl53zsP4Yl6/n0H1r01ESNURAFRFCqB0CgYAFYnhvTfsNkJpFxc3YWR8j5kj/gT+p+vtW5Xw2bYv6xW5Y/DHT/NnmYipzystkFFFFeOcwUUUUAFFFFABRRRQAUUUUAFFFFABRRRQAUUUUAFFFFABRRRQAVla5p/220ZkGbi3Bkix1YfxJ+NatFa0qsqU1UjuiZRUlZnmNFbGv2H2O7MyDEF0WdcfwydWX+o/wDrVjV95RqxrQVSOzPNcXF2YUUUlbFJBRRSUFpBRRSUzRIKOKKSmWkFFFFBaQUlFFMpIKfCu+aFP7zqD9M1HVvT03XKnHCKzfj0Febm2J+qYGtX/li387afidNCnz1Ix8zcopKK/lo+vFpKKSgBaKSigBaKSigYtFJRQAUUUUAQ3U4t4ZJO+MIPVjwK5skkkk5JJJPqTzV/U5/MmEKn5Yevu56/lWfX9CcE5P8A2fl6rVF79XV+S+yvu1+Z5OInzzstkFFJRX3RikFFFJTLSFrX8P6b/aF8hdSba22zTHsxB+VPx/pWQAzEKoJZiAoHJJPAAr0rRdOGm2MUJA85/wB7cMO8jds+3SvJzXF/VqFo/FLRfqzHEVPZw03ZpUUUV8GeQFFFFABRRRQAUUUUAFFFFABRRRQAUUUUAFFFFABRRRQAUUUUAFFFFABRRRQBU1GyS/tJrdvvEbom/uyL90/41546PG7xupV0ZkZT1BBwRXp1cn4msNkiX8a/JLiOfHZx91vx6f8A6697J8VyT9jLZ7ev/BMKsL+8jm6SiivqjBIKKSig0SCikoplpBRRSUFpC0lFFMtIKSiimWkFaWlp/r5Md1QH9T/SsytvT022qHu5Z/zOBXw/HWJ9hlEoLeclH/279D0svhetfsW6KKK/n8+jCiiigAopKKAFopKKAFopKKAFqC5nFvDJJ3Awg9WPAqasTU5/MlEKn5Yuvu5/wr6bhjKHm2YQoyXuR96XounzehjXnyQ8ygSSSSckkkn1JpKKK/phK2iPJSCikoplpBRRT4YpbiaGCJS0kzrGgHqxxQ2krss6Dwrpv2m6a9lXMNoR5ef4pzyP++ev5V3VVdPsotPtLe1jxiNfmbGN7nlmP1NWq/PMwxTxVZz6bL0PErVPaTv0CiiiuAxCiiigAooooAKKKKACiiigAooooAKKKKACiiigAooooAKKKKACiiigAooooAKiubeK6gmt5RmOVCp9RnoR7jtUtFOLcXdAeaXVvLaXE9tKMPE+0+46hh9RzUFdf4m0/wA2Fb+Jf3kA2zgfxRH+L8P6+1chX3mDxKxNJT69fUwcbMKSiiuwaQUUUlMtIKKKSgtIKKKSmWkFFFJTNEgro4l8uKJP7qKPxxWDbp5k8Cesi5+gOTXQ1+Q+I+K96hhl5yf4JfqezlsPikFFJRX5IewLRSUUgFopKKACiiigAopKKBkVzOLeGSTuBhB6seBXNkkkknJJJJ9Seav6nP5kohU/JD193PX8qoV/QvBGT/2fl6rVF79XV+S+yvu1+Z5defPPTZBSUUV92YpBRSUUy0grrvCOm5Mmpyr/AHorXP5O/wDQfjXM2NnLf3dvaR5zKwDMB9yMcsx+lepQQxW0MMEShY4kWNAPQDFfP53jPZU/YR3lv6f8E48ZU5Y8i3ZJRRRXxh5IUUUUAFFFFABRRRQAUUUUAFFFFABRRRQAUUUUAFFFFABRRRQAUUUUAFFFFABRRRQAUUUUAIyq6sjAFWBVgehBGCDXnWqWLafeSwc+Wf3kDH+KNjx+XQ16NWRr+nfbrNnjGbi2zLF6sv8AEn49vpXq5Zivq9Xll8MtP8mJq5wdJRRX2okgopKKZaQUUlFBokFFJRTLSCiikplJF3TV3XG7tGjH8T8orZrL0vb/AKQf4vkH/AeTWnX898dYh1c4nB/YUV+F/wBT6LAw5aKfcWkprOiDLsqj1YgD9aqyajaJkKWkP+wOPzNfM4LK8Zj3bC0pT9Fp9+y+86pVIQ+JlyiseTVLhv8AVoiD1PzH/CrFleyTuYpQN2CysoxkDqCK9/F8G5pg8JLF1oq0dWr3aXftp5MxjiqcpcqNCikor486haKSigBaguZhbwySdwMKPVjwKmrF1KfzJREp+SLr7uev5V9NwvlH9rZjCjJe5H3pei6fN6GVafJG/UokkkknJJJJ9Sec0lFFf00lbRHlJBSUUlMtIWkorQ0bTm1O+hgwfJX97ct6Rqen49KipUjSg5z2RTainJnVeFNN+z2zX8q/vrsARZ6rAOR/311/KulpFVVVVUAKoCqBwABwABS1+b4nESxFWVWXU+eqVHUk5MKKKK5zMKKKKACiiigAooooAKKKKACiiigAooooAKKKKACiiigAooooAKKKKACiiigAooooAKKKKACiiigDhPEGnfYrwyxri3ui0iY6LJ1Zf6j/AOtWLXpGqWKajZzW5wHxvhY/wyr90/0NecOrxu8bqVdGZHU9QynBFfa5XivrFLll8Uf6TKSEpKKK9c0SCkooplpBRSUUFpBRRSUy0iSKaWF98Zw3TnkEehFTPqF44xvCj/YGD+ZqpRXnYjKsFiaqr16MZSXVpNm8ZziuVPQVmdzl2Zj6sSf50lJRXoxiorlirIW4Vf0tMzSP2RMfixqhWtpaYikf+++B9F4r5LjPFfVsmrd5Wivm9fwudeFheojRpKKK/m89wKKKKAIbmYQQySdwMKPVj0Fc6SSSSckkkk9yavalP5koiU/JF193PWqFf0PwRk39nZeq1Re/V1fkvsr7tfmeZXnzz8kFFFJX3ZkkFFFJTNEgr0bw5pn9n2KtIuLm62yzeqjHyp+Hf61ynhrTPt98ssi5trMrLJno8nVE/qfp716LXyue4zbDQ9X+i/X7jzMdW/5dr5hRRRXyp5QUUUUAFFFFABRRRQAUUUUAFFFFABRRRQAUUUUAFFFFABRRRQAUUUUAFFFFABRRRQAUUUUAFFFFABRRRQAVx/inTvKlTUIl+SYhLjHaTHyufr0//XXYVDdW8V3bz20ozHMhQ+oz0I9x1rswWJeGrKp06+g07M8uoqa7tpbO4ntpfvwuVJxww6hh9etQ19/FqSUlszpQUlFFWWkFJRSUFpC0lFFMtIKSiimWkFFFJTLSCt+zTy7aAY5Khj9W5rBUbmRR/Eyr+ZxXSABQAOgAA/DivynxJxXLh6GGX2m5fcrL8z0cFHVsWiiivxU9QKguphBC8n8WNqD1Y9KnrF1KfzJvLU/JFkH3c9a+p4Vyf+1sxhSkvcj70vRdPm9PS5jWnyR0KJJJJPJPJPuaSiiv6ZSPNSCkooqi0gpVV3ZEQFndgqqOpZjgAUldP4S0zz7h9RlX91bEpBno0xHJ/wCAj9T7VzYrERw1KVWXT8yKtRUoObOp0fTk0yxgt8DzSPMuGH8UrdefboPpWhRRX5vUqSqzc5bs+blJybkwooorMkKKKKACiiigAooooAKKKKACiiigAooooAKKKKACiiigAooooAKKKKACiiigAooooAKKKKACiiigAooooAKKKKAOa8U6d5sK6hEv7yABJ8dWiJ4b8P6+1cZXq7Krq6MAVdSrA9CCMEGvNdVsH029mtzkxn95Ax/iibp+I6GvrMlxfPF0Jbrb0/4B0UnfQpUlFJX0Z0pBRRSUy0gooooLSCkooplpBRRSUzRIs2Sb7qEdlJc/8BGa3qydLTMkz/3UCj6sc1rV+AeIOK9tmqpLaEUvm7v8mj1cLG0LhRRRX56dZBdTi3heT+L7qD1Y9K50kkkk5JJJ+pq9qU/mTeWp+SHj6uetUK/orgjJv7Oy5Vai9+r7z8l9lfdr6s8+tLnkLSUUV90ZpBSUUUy0iW3t5rqeC2hGZJpFjT2z3PsOpr1SytIbG1t7WIfJCgXOMFm6lj7k81zPhDTNqyapKvzOGitc/wBzozj69B9Peuur4nO8Z7Wr7GO0fz/4H+Z4eOrc8+RbL8wooor5884KKKKACiiigAooooAKKKKACiiigAooooAKKKKACiiigAooooAKKKKACiiigAooooAKKKKACiiigAooooAKKKKACiiigArG8Rab9vsjJGubm13SxY6suPmT8e30rZorajWlQqKpDdDi+V3R5LmitnxFpv2C9Mka4t7stJHjor9XT+o+vtWLX6JQrRr01Uhsz0ovmV0FFFJWxqkLSUUUy0gpKKKZokFFFITTKSNnTE227P8A35CfwXir9Q2qeXb269xGpP1PNTV/K+fYr63mdet0cnb0TsvwR7FKPLBIKgupxbwSSfxfdQerHpU9Yepz+bN5Sn5Icg+7nrXfwrk/9rZjClJe5H3pei6fN6elwqy5YlEknJJySSSfUnmiikr+m0rHDYWkopKZaQtW9NsZdRvLe0TIDtmVgM7I15Zj/T61Trv/AAppn2SzN5KuLi8AZc9Ug6qPx6n8PSvPzHFrCUHNbvRev/AMMVW9jTcuvQ6CGKKCKKGJQscSKiKOgVRgU+iivzptt3Z8wFFFFIAooooAKKKKACiiigAooooAKKKKACiiigAooooAKKKKACiiigAooooAKKKKACiiigAooooAKKKKACiiigAooooAKKKKACiiigCjq1gmpWU1uceZjfAx/hlXof6H615m6PG7xupV0Yo6nghgcEV61XF+K9N8qZNRiX93OQlwB/DLjh/x6fh719HkmL5J/V5bPb1/4J14adnys5eiikr689JIWkoooLSCkooplJBSopeSNB1Z1X8zTataem+7h44Tc/5DiuHMcT9TwlXEfyRb+5GsY3aRv9OB24ooor+TL31Z6xBdTi3gkk/ixtQerHpXOEkkknJJySe5NXtTuPNm8pT8kPH1c9aoV/RXBGT/ANm5cqtRe/V95+S+yvu19WcdSXNIKKSivuiUgoopP8imWkauhaadT1CKJh/o8OJrk9tinhP+BHivTgAAAAAAAABwAB2FZHh7TP7NsEDjFzcYmuD6Ej5U/Af1rXr8/wA2xn1qv7vwx0X6s+axtf21TTZbBRRRXkHEFFFFABRRRQAUUUUAFFFFABRRRQAUUUUAFFFFABRRRQAUUUUAFFFFABRRRQAUUUUAFFFFABRRRQAUUUUAFFFFABRRRQAUUUUAFFFFABUN1bQ3lvPbTDMcyFD7dwR9OtTUU4ycWpLdDTtqjym6tprO4ntphiSFyh9COoYex61BXa+LNN82FNRiX95AAlwB/FETw34H9D7VxNfomBxSxVFVOvX1Paoz9pG4tJRSV3HSkFFFJTLSCtPSEy1xJjoFQH3PzGsytzS022u7vI7N+A+UV8Tx1ivq+TVIrebUfxu/wTOijH3kXqgupxbwSSfxY2oPVj0qesPU7jzZvKU/JDwfdz1r8b4Vyf8AtbMYUpL3I+9L0XT5vT0uddSVkUCSSSeSckk9yaSiiv6cSscqQUUlFM0SCug8LaZ9tvvtMq5trIq/I4ebqq8+nU/h61gRpJLJHFGpaSR1RFHVmY4Ar1TStPj0yxt7VcFlG+Zh/HK3LH+g+leLnGM+r0OSPxS0+XU4cfX9lT5Vuy9RRRXwR8yFFFFABRRRQAUUUUAFFFFABRRRQAUUUUAFFFFABRRRQAUUUUAFFFFABRRRQAUUUUAFFFFABRRRQAUUUUAFFFFABRRRQAUUUUAFFFFABRRRQAUUUUAI6JIjo6hkdSjKehUjBBrzHVtPfTb2a3OfLJ8y3Y/xRMeOfUdD9K9PrE8SaZ9vsTLGubm0DSx46umPnT8eo+nvXsZTjPq9bll8MtH+jOrC1fZzs9med0UlFfeHvJBRRSUy0gJrpbZPLt7dOuI05+ozXNVoW+pvDGscke8IMKQ2Dj0Oa+D43ybGZthKcMGuZxldq6V9LX100/U3ptRd2al3OLeB5P4vuxj1Y9K5okkkk5JOSfUmrF1dyXThmAVVBCKDkDPcn1qvXZwjw+8lwbVb+LPWXl2V/L82ypPmdwpKKSvshpC0lFT2lrNe3Nvawj95O4QHso6lj7Ac0pSUU5S2Q21FXZ0vhDS/NlfU5l+SEmO2BHDSEYZx9Og+vtXcVBaWsNlbW9rCMRwoEX3x1Y+56mp6/N8fini67qdOnofI4mu69Rz+4KKKK4TnCiiigAooooAKKKKACiiigAooooAKKKKACiiigAooooAKKKKACiiigAooooAKKKKACiiigAooooAKKKKACiiigAooooAKKKKACiiigAooooAKKKKACiiigDzrxJpn9n3zSRri2uy0sWOiP/Gn9R9fasSvUNX05NTsZrc4Eg/eQMf4ZV6fn0P1rzB1eN3jdSrozI6ngqynBBr73KMZ9Zo8svijo/0Z7+Dre1hZ7obRSUV7J6CQUUUlM0SCiikplpBRRRQUFdx4Q0zyoZNTmX95ODHbAjpEDy4/3j/L3rldK0+TU72C1UHYTvnYfwRKfmP9B9a9UjjjijjijULHGqoijoqqMACvms9xnJBYeL1e/p/wTx8zxHLH2Ud3v6DqKKK+MPnwooooAKKKKACiiigAooooAKKKKACiiigAooooAKKKKACiiigAooooAKKKKACiiigAooooAKKKKACiiigAooooAKKKKACiiigAooooAKKKKACiiigAooooAKKKKACuH8XaZ5M6ajEuI7ghLjH8MwHDH6j+XvXcVBeWsN7bXFrMMxzIUPqD1DD3HWu7AYp4SsqnTr6G+HrOjUUjySkqe6tprO4uLWYYkgco3ofRh7HrUFfpEZKSUlsz6yNmroKSiiqNEgooooGFFFbHh7TP7S1CMOuba22zXGRw2D8qfif0BrKtVjRpupPZGdSoqcXOWyOs8L6X9hsRcSri5vAsjZ6pF1Rf6n6+1dBR04FFfmeIryxFWVWe7Pj6tR1ZucuoUUUVgZhRRRQAUUUUAFFFFABRRRQAUUUUAFFFFABRRRQAUUUUAFFFFABRRRQAUUUUAFFFFABRRRQAUUUUAFFFFABRRRQAUUUUAFFFFABRRRQAUUUUAFFFFABRRRQAUUUUAFFFFAHJ+L9L82JNThX95ABHc46tETw3/AT+h9q4evYpESVJI5FDJIrI6noVYYIryzV9PfTL6e1OTHnzIGP8UTfd/EdD9K+zyLGc8Hh57rb0/wCAfQZZiOaPspbrYoUUUV9KewFFFFAAASQACSSAAOSSeABXp+g6YNM0+KJh/pEuJrk/7bD7v4dK5Twnpn2u8N7Kv7izIKZHDzkZA/4D1/KvQK+Qz7Gc0lhodNX69EeBmeIu/Yx6bhRRRXyx4wUUUUAFFFFABRRRQAUUUUAFFFFABRRRQAUUUUAFFFFABRRRQAUUUUAFFFFABRRRQAUUUUAFFFFABRRRQAUUUUAFFFFABRRRQAUUUUAFFFFABRRRQAUUUUAFFFFABRRRQAUUUUAFYPifSzqFiZYkzdWm6SPHV4/40/qPp71vUVvh60qFRVYbo0p1HSmpx3R43RW34k0v+zr9niXFrd7pYsDhHz86fh1H19qxK/S6FaNemqsNmfYUqiqwU47MKfDFLPLDBEu6WZ1jjX1ZjgUyuv8AB+mbnk1SVflTdDagjq3R3H06D8ayxmJjhaMqr6bepGIrKjTc2dTptjFp1lb2kf8AyzXMjf35G5Zj9TVyiivzWc5VJOct2fHyk5Nye4UUUVAgooooAKKKKACiiigAooooAKKKKACiiigAooooAKKKKACiiigAooooAKKKKACiiigAooooAKKKKACiiigAooooAKKKKACiiigAooooAKKKKACiiigAooooAKKKKACiiigAooooAKKKKAKOq6bBqtpJbSHa2Q8MgGTHIOh/oa8+u/D+uWjsrWkkqA4WS3HmIw7HC8/pXp9Fergs0rYNOMdV2Z24fGVMOrLVHnGneGNXvJE8+JrW3yC7zYDlfRE65r0K3ghtYIbeFdsUKKiD2Hr/AFqWis8bmFXGtc+iXREYjFTxD97YKKKK845QooooAKKKKACiiigAooooAKKKKACiiigAooooAKKKKACiiigAooooAKKKKACiiigAooooAKKKKACiiigAooooAKKKKACiiigAooooAKKKKACiiigAooooAKKKKACiiigAooooAKKKKACiiigAooooAKKKKACiiigAooooAKKKKACiiigAooooAKKKKACiiigAooooAKKKKACiiigAooooAKKKKACiiigAooooA//Z;" vertex="1" parent="esbHECSBwcRWjfnft_Ba-1">
          <mxGeometry x="230.00000000000003" y="120" width="81.2" height="80" as="geometry" />
        </mxCell>
        <mxCell id="w12pl_d0Eym6oQ7OZC4N-16" value="" style="edgeStyle=orthogonalEdgeStyle;rounded=0;orthogonalLoop=1;jettySize=auto;html=1;fontSize=12;" edge="1" parent="esbHECSBwcRWjfnft_Ba-1" source="w12pl_d0Eym6oQ7OZC4N-14" target="w12pl_d0Eym6oQ7OZC4N-4">
          <mxGeometry x="0.0038" relative="1" as="geometry">
            <mxPoint as="offset" />
          </mxGeometry>
        </mxCell>
        <mxCell id="w12pl_d0Eym6oQ7OZC4N-14" value="API Proxy" style="image;aspect=fixed;html=1;points=[];align=center;fontSize=12;image=img/lib/azure2/other/API_Proxy.svg;" vertex="1" parent="esbHECSBwcRWjfnft_Ba-1">
          <mxGeometry x="366.77" y="126" width="68" height="68" as="geometry" />
        </mxCell>
      </root>
    </mxGraphModel>
  </diagram>
  <diagram id="EIwpieNMHmG2qMa1hDtC" name="Page-2">
    <mxGraphModel dx="784" dy="1185" grid="1" gridSize="10" guides="1" tooltips="1" connect="1" arrows="1" fold="1" page="1" pageScale="1" pageWidth="850" pageHeight="1100" math="0" shadow="0">
      <root>
        <mxCell id="0" />
        <mxCell id="1" parent="0" />
      </root>
    </mxGraphModel>
  </diagram>
</mxfile>
